HIERARCHY
ROOT Hips
{
	OFFSET 0.000000 71.427986 0.000000
	CHANNELS 6 Xposition Yposition Zposition Xrotation Yrotation Zrotation
	JOINT Pelvis
	{
		OFFSET 0.000000 0.000000 0.000000
		CHANNELS 3 Xrotation Yrotation Zrotation
		JOINT LeftUpLeg
		{
			OFFSET 6.797100 -2.508499 -1.318700
			CHANNELS 3 Xrotation Yrotation Zrotation
			JOINT LeftLeg
			{
				OFFSET 0.069008 -29.241863 0.690200
				CHANNELS 3 Xrotation Yrotation Zrotation
				JOINT LeftFoot
				{
					OFFSET -0.069008 -29.568123 -0.266800
					CHANNELS 3 Xrotation Yrotation Zrotation
					JOINT LeftToeBase
					{
						OFFSET 3.145500 -8.631000 16.059900
						CHANNELS 3 Xrotation Yrotation Zrotation
						End Site
						{
							OFFSET 0.000000 18.501587 0.000000
						}
					}
				}
			}
			JOINT Left_ShortSleeve
			{
				OFFSET 0.265923 -10.480953 1.153800
				CHANNELS 3 Xrotation Yrotation Zrotation
				End Site
				{
					OFFSET 1.725763 19.823879 0.000000
				}
			}
		}
		JOINT RightUpLeg
		{
			OFFSET -6.797100 -2.508499 -1.318700
			CHANNELS 3 Xrotation Yrotation Zrotation
			JOINT RightLeg
			{
				OFFSET -0.082453 -29.241932 0.688000
				CHANNELS 3 Xrotation Yrotation Zrotation
				JOINT RightFoot
				{
					OFFSET 0.082453 -29.568058 -0.264600
					CHANNELS 3 Xrotation Yrotation Zrotation
					JOINT RightToeBase
					{
						OFFSET -3.115300 -8.682800 16.113400
						CHANNELS 3 Xrotation Yrotation Zrotation
						End Site
						{
							OFFSET 0.000000 18.567114 0.000000
						}
					}
				}
			}
			JOINT Right_ShortSleeve
			{
				OFFSET -0.265923 -10.480953 1.153800
				CHANNELS 3 Xrotation Yrotation Zrotation
				End Site
				{
					OFFSET -1.725766 19.823910 0.000000
				}
			}
		}
	}
	JOINT Spine
	{
		OFFSET 0.000000 13.368103 0.470500
		CHANNELS 3 Xrotation Yrotation Zrotation
		JOINT Spine1
		{
			OFFSET 0.147000 13.837402 0.538800
			CHANNELS 3 Xrotation Yrotation Zrotation
			JOINT Spine2
			{
				OFFSET 0.168000 16.242897 -1.435500
				CHANNELS 3 Xrotation Yrotation Zrotation
				JOINT Neck
				{
					OFFSET 0.217200 18.631500 -1.679100
					CHANNELS 3 Xrotation Yrotation Zrotation
					JOINT Head
					{
						OFFSET 0.000000 6.599396 1.385900
						CHANNELS 3 Xrotation Yrotation Zrotation
						JOINT Hat
						{
							OFFSET -0.532200 27.220596 -10.096100
							CHANNELS 3 Xrotation Yrotation Zrotation
							End Site
							{
								OFFSET 0.000000 22.029861 0.000000
							}
						}
						JOINT HairD
						{
							OFFSET -10.777400 17.437393 -1.325900
							CHANNELS 3 Xrotation Yrotation Zrotation
							JOINT HairD1
							{
								OFFSET -3.290299 -11.051193 1.062200
								CHANNELS 3 Xrotation Yrotation Zrotation
								End Site
								{
									OFFSET 0.000000 11.579437 0.000000
								}
							}
						}
						JOINT HairB
						{
							OFFSET -10.777400 17.437393 1.467900
							CHANNELS 3 Xrotation Yrotation Zrotation
							JOINT HairB1
							{
								OFFSET -1.561200 -12.956299 3.590200
								CHANNELS 3 Xrotation Yrotation Zrotation
								End Site
								{
									OFFSET 0.000000 13.534866 0.000000
								}
							}
						}
						JOINT HairA
						{
							OFFSET 9.713100 17.437393 1.467900
							CHANNELS 3 Xrotation Yrotation Zrotation
							JOINT HairA1
							{
								OFFSET 1.561200 -12.956299 3.590200
								CHANNELS 3 Xrotation Yrotation Zrotation
								End Site
								{
									OFFSET 0.000000 13.534866 0.000000
								}
							}
						}
						JOINT HairC
						{
							OFFSET 9.713100 17.437393 -1.325900
							CHANNELS 3 Xrotation Yrotation Zrotation
							JOINT HairC1
							{
								OFFSET 3.290300 -11.051193 1.062200
								CHANNELS 3 Xrotation Yrotation Zrotation
								End Site
								{
									OFFSET 0.000000 11.579437 0.000000
								}
							}
						}
					}
				}
				JOINT LeftShoulder
				{
					OFFSET 5.101800 15.108002 -2.763700
					CHANNELS 3 Xrotation Yrotation Zrotation
					JOINT LeftArm
					{
						OFFSET 9.825497 2.506317 -1.597400
						CHANNELS 3 Xrotation Yrotation Zrotation
						JOINT LeftForeArm
						{
							OFFSET 21.966244 0.000000 0.000000
							CHANNELS 3 Xrotation Yrotation Zrotation
							JOINT LeftHand
							{
								OFFSET 33.879036 0.000000 0.000000
								CHANNELS 3 Xrotation Yrotation Zrotation
								JOINT LeftHandThumb1
								{
									OFFSET 6.715286 -2.359680 3.363841
									CHANNELS 3 Xrotation Yrotation Zrotation
									JOINT LeftHandThumb2
									{
										OFFSET 2.507072 -1.447464 1.447461
										CHANNELS 3 Xrotation Yrotation Zrotation
										JOINT LeftHandThumb3
										{
											OFFSET 2.898338 -1.673355 1.673357
											CHANNELS 3 Xrotation Yrotation Zrotation
											End Site
											{
												OFFSET -0.295959 3.727692 -0.131651
											}
										}
									}
								}
								JOINT LeftHandIndex1
								{
									OFFSET 14.190811 -0.254547 3.840278
									CHANNELS 3 Xrotation Yrotation Zrotation
									JOINT LeftHandIndex2
									{
										OFFSET 3.551727 0.000000 -0.000000
										CHANNELS 3 Xrotation Yrotation Zrotation
										JOINT LeftHandIndex3
										{
											OFFSET 2.894196 0.000000 0.000000
											CHANNELS 3 Xrotation Yrotation Zrotation
											End Site
											{
												OFFSET -1.000603 2.690872 0.366626
											}
										}
									}
								}
								JOINT LeftHandMiddle1
								{
									OFFSET 13.776489 0.000000 0.000000
									CHANNELS 3 Xrotation Yrotation Zrotation
									JOINT LeftHandMiddle2
									{
										OFFSET 3.438232 0.000000 0.000000
										CHANNELS 3 Xrotation Yrotation Zrotation
										JOINT LeftHandMiddle3
										{
											OFFSET 3.691551 0.000000 0.000000
											CHANNELS 3 Xrotation Yrotation Zrotation
											End Site
											{
												OFFSET -1.082298 3.499527 0.457670
											}
										}
									}
								}
								JOINT LeftHandRing1
								{
									OFFSET 13.966164 -0.268127 -3.067488
									CHANNELS 3 Xrotation Yrotation Zrotation
									JOINT LeftHandRing2
									{
										OFFSET 3.162567 0.000000 0.000000
										CHANNELS 3 Xrotation Yrotation Zrotation
										JOINT LeftHandRing3
										{
											OFFSET 3.324348 0.000000 0.000000
											CHANNELS 3 Xrotation Yrotation Zrotation
											End Site
											{
												OFFSET -0.861900 3.184998 0.405154
											}
										}
									}
								}
								JOINT LeftHandPinky1
								{
									OFFSET 13.131393 -0.168503 -5.746925
									CHANNELS 3 Xrotation Yrotation Zrotation
									JOINT LeftHandPinky2
									{
										OFFSET 2.849182 0.000000 0.000000
										CHANNELS 3 Xrotation Yrotation Zrotation
										JOINT LeftHandPinky3
										{
											OFFSET 2.805038 0.000000 0.000000
											CHANNELS 3 Xrotation Yrotation Zrotation
											End Site
											{
												OFFSET -0.882500 2.642609 0.325652
											}
										}
									}
								}
							}
							JOINT Left_Sleeve
							{
								OFFSET 6.592125 -0.646545 0.805568
								CHANNELS 3 Xrotation Yrotation Zrotation
								End Site
								{
									OFFSET -0.000179 20.275787 -0.000000
								}
							}
						}
					}
				}
				JOINT RightShoulder
				{
					OFFSET -5.731700 15.108002 -2.763700
					CHANNELS 3 Xrotation Yrotation Zrotation
					JOINT RightArm
					{
						OFFSET -9.825497 2.506317 -1.597400
						CHANNELS 3 Xrotation Yrotation Zrotation
						JOINT RightForeArm
						{
							OFFSET -21.966242 0.000000 0.000000
							CHANNELS 3 Xrotation Yrotation Zrotation
							JOINT RightHand
							{
								OFFSET -33.879032 0.000000 0.000000
								CHANNELS 3 Xrotation Yrotation Zrotation
								JOINT RightHandThumb1
								{
									OFFSET -6.715286 -2.359680 3.363841
									CHANNELS 3 Xrotation Yrotation Zrotation
									JOINT RightHandThumb2
									{
										OFFSET -2.507072 -1.447464 1.447461
										CHANNELS 3 Xrotation Yrotation Zrotation
										JOINT RightHandThumb3
										{
											OFFSET -2.898338 -1.673355 1.673357
											CHANNELS 3 Xrotation Yrotation Zrotation
											End Site
											{
												OFFSET 0.295959 3.727692 -0.131651
											}
										}
									}
								}
								JOINT RightHandIndex1
								{
									OFFSET -14.190811 -0.254547 3.840278
									CHANNELS 3 Xrotation Yrotation Zrotation
									JOINT RightHandIndex2
									{
										OFFSET -3.551727 0.000000 -0.000000
										CHANNELS 3 Xrotation Yrotation Zrotation
										JOINT RightHandIndex3
										{
											OFFSET -2.894196 0.000000 0.000000
											CHANNELS 3 Xrotation Yrotation Zrotation
											End Site
											{
												OFFSET 1.000603 2.690872 0.366626
											}
										}
									}
								}
								JOINT RightHandMiddle1
								{
									OFFSET -13.776489 0.000000 0.000000
									CHANNELS 3 Xrotation Yrotation Zrotation
									JOINT RightHandMiddle2
									{
										OFFSET -3.438232 0.000000 0.000000
										CHANNELS 3 Xrotation Yrotation Zrotation
										JOINT RightHandMiddle3
										{
											OFFSET -3.691551 0.000000 0.000000
											CHANNELS 3 Xrotation Yrotation Zrotation
											End Site
											{
												OFFSET 1.082298 3.499527 0.457670
											}
										}
									}
								}
								JOINT RightHandRing1
								{
									OFFSET -13.966164 -0.268127 -3.067488
									CHANNELS 3 Xrotation Yrotation Zrotation
									JOINT RightHandRing2
									{
										OFFSET -3.162567 0.000000 0.000000
										CHANNELS 3 Xrotation Yrotation Zrotation
										JOINT RightHandRing3
										{
											OFFSET -3.324348 0.000000 0.000000
											CHANNELS 3 Xrotation Yrotation Zrotation
											End Site
											{
												OFFSET 0.861900 3.184998 0.405154
											}
										}
									}
								}
								JOINT RightHandPinky1
								{
									OFFSET -13.131393 -0.168503 -5.746925
									CHANNELS 3 Xrotation Yrotation Zrotation
									JOINT RightHandPinky2
									{
										OFFSET -2.849182 0.000000 0.000000
										CHANNELS 3 Xrotation Yrotation Zrotation
										JOINT RightHandPinky3
										{
											OFFSET -2.805038 0.000000 0.000000
											CHANNELS 3 Xrotation Yrotation Zrotation
											End Site
											{
												OFFSET 0.882500 2.642609 0.325652
											}
										}
									}
								}
							}
							JOINT Right_Sleeve
							{
								OFFSET -6.592125 -0.646545 0.805568
								CHANNELS 3 Xrotation Yrotation Zrotation
								End Site
								{
									OFFSET 0.000179 20.275787 -0.000000
								}
							}
						}
					}
				}
				JOINT Bind_Right_JacketString
				{
					OFFSET -3.534800 11.969597 7.200700
					CHANNELS 3 Xrotation Yrotation Zrotation
					JOINT Bind_Right_JacketString1
					{
						OFFSET -0.319900 -6.102600 2.794100
						CHANNELS 3 Xrotation Yrotation Zrotation
						End Site
						{
							OFFSET 0.000000 6.719452 0.000000
						}
					}
				}
				JOINT Bind_Left_JacketString
				{
					OFFSET 2.904800 11.969597 7.200700
					CHANNELS 3 Xrotation Yrotation Zrotation
					JOINT Bind_Left_JacketString1
					{
						OFFSET 0.364800 -5.904503 3.186800
						CHANNELS 3 Xrotation Yrotation Zrotation
						End Site
						{
							OFFSET 0.000000 6.719513 0.000000
						}
					}
				}
				JOINT HairE
				{
					OFFSET 5.915200 17.612701 -11.592200
					CHANNELS 3 Xrotation Yrotation Zrotation
					JOINT HairE1
					{
						OFFSET 0.289200 -7.171898 -1.284500
						CHANNELS 3 Xrotation Yrotation Zrotation
						End Site
						{
							OFFSET 0.000000 7.291756 0.000000
						}
					}
				}
				JOINT HairF
				{
					OFFSET -0.864800 17.612701 -11.592200
					CHANNELS 3 Xrotation Yrotation Zrotation
					JOINT HairF1
					{
						OFFSET 0.000000 -14.087097 -2.127501
						CHANNELS 3 Xrotation Yrotation Zrotation
						End Site
						{
							OFFSET 0.000000 14.246841 0.000000
						}
					}
				}
				JOINT HairG
				{
					OFFSET -8.087700 17.612701 -11.592200
					CHANNELS 3 Xrotation Yrotation Zrotation
					JOINT HairG1
					{
						OFFSET -0.293600 -6.081398 -0.910100
						CHANNELS 3 Xrotation Yrotation Zrotation
						End Site
						{
							OFFSET 0.000000 6.156120 0.000000
						}
					}
				}
			}
		}
	}
	JOINT Pouch
	{
		OFFSET 0.000000 4.394501 10.847300
		CHANNELS 3 Xrotation Yrotation Zrotation
		End Site
		{
			OFFSET 0.000000 21.880577 0.000000
		}
	}
	JOINT Bag
	{
		OFFSET -13.229000 4.813004 -0.593300
		CHANNELS 3 Xrotation Yrotation Zrotation
		End Site
		{
			OFFSET 0.000000 21.880577 0.000000
		}
	}
	JOINT OccupyGuyFacialAnim_Joint
	{
		OFFSET 1.000000 -70.206398 -1.655000
		CHANNELS 3 Xrotation Yrotation Zrotation
		End Site
		{
			OFFSET 0.000000 21.880577 0.000000
		}
	}
}
MOTION
Frames: 4
Frame Time: 0.016667
7.711337 9.731300 -12.269073 -115.511831 73.402506 33.775719 -0.000001 -0.000001 0.000000 -87.245073 5.542169 -1.678964 89.892010 1.402069 -0.580625 -4.982474 0.323374 -0.622107 0.000000 0.000001 -0.000000 0.000000 0.000000 -0.000001 -35.382709 7.173909 5.390226 87.459083 -5.155723 -3.735889 33.196488 0.824936 15.271716 0.000000 -0.000001 0.000001 0.000001 0.000001 -0.000001 15.305981 -10.736746 -6.966666 10.269406 -4.988673 -4.175168 10.075513 -5.450796 -4.055231 -3.272619 7.228374 -14.282622 -28.199350 11.664155 -14.767934 0.000001 0.000000 -0.000000 0.000001 0.000000 -0.000000 0.000001 0.000000 0.000001 0.000001 0.000000 0.000002 0.000000 0.000001 0.000003 0.000001 0.000000 0.000002 0.000000 0.000001 0.000003 0.000001 0.000000 -0.000000 0.000001 0.000000 -0.000000 4.010593 -4.908954 30.425931 -98.272195 29.592949 -48.772270 0.000000 -29.022065 -0.000000 0.131374 16.629456 8.536184 -1.540043 3.690186 6.142354 3.939054 7.948706 0.746822 0.000001 0.000001 -0.000001 -0.000005 -0.000001 0.000016 0.000002 0.000008 -0.000022 0.000003 -0.000000 -0.000000 -0.000000 -0.001931 0.015992 0.000001 0.001937 -0.016004 -0.000002 -0.000002 -0.000003 0.000003 -0.000003 0.000009 -0.000002 0.000008 -0.000010 0.000002 0.000000 -0.000003 -0.018088 4.054255 0.511080 -0.018091 -4.054247 -0.511083 0.000001 -0.000000 0.000001 -0.000000 0.000000 0.000000 5.201616 10.649079 -16.868035 -39.319528 45.122811 97.301229 -0.000161 102.936504 0.000164 5.604810 -5.065555 40.880796 -1.849252 -3.581794 -6.586146 4.637190 -8.634127 -0.225408 0.000001 -0.000001 -0.000000 0.000003 0.000002 0.000004 0.000000 0.000001 0.000009 -0.000000 0.000001 0.000004 0.000007 -0.000002 0.000003 -0.000002 0.000005 0.000019 0.000000 0.000000 -0.000003 0.000004 0.000001 -0.000004 0.000001 0.000000 0.000005 0.000000 0.000001 0.000002 0.000001 0.000000 0.000008 0.000000 0.000001 0.000001 0.000001 0.000001 0.000001 0.000001 -0.000000 -0.000003 -0.000003 0.000000 -0.000001 0.000001 0.000000 -0.000001 -0.000003 0.000000 -0.000001 -0.000003 0.000000 -0.000001 -0.000003 0.000000 -0.000001 0.000001 0.000000 -0.000001 -0.000003 0.000000 -0.000001 -0.000003 0.000000 -0.000001 -0.000003 0.000000 -0.000001 0.000001 0.000000 -0.000001 -0.000001 -0.000001 0.000000 -0.000001 -0.000001 0.000000 -0.000001 -0.000001 0.000000 
7.731584 9.734467 -12.262760 -115.478855 73.321323 33.721935 0.000000 0.000001 0.000001 -87.061799 5.505111 -1.575645 90.006443 0.880121 -0.650641 -6.042869 0.338168 -0.770932 0.000000 -0.000000 0.000000 -0.000000 -0.000000 -0.000001 -35.340375 7.158224 5.399233 87.471425 -5.171211 -3.745515 33.168129 0.854090 15.193358 0.000001 0.000000 -0.000002 0.000004 -0.000001 0.000000 15.251483 -10.715418 -6.910374 10.226782 -5.010040 -4.150913 10.032185 -5.472371 -4.029277 -3.171011 7.239971 -14.352365 -28.146074 11.710059 -14.821587 0.000000 -0.000001 -0.000002 0.000000 -0.000001 -0.000002 0.000000 -0.000001 -0.000001 0.000000 -0.000001 -0.000002 0.000000 0.000000 -0.000000 0.000000 -0.000001 -0.000002 0.000000 0.000000 -0.000000 0.000000 -0.000001 -0.000002 0.000000 -0.000001 -0.000002 4.063065 -4.848779 30.216743 -98.229438 29.536163 -48.772813 -0.000001 -28.953104 -0.000001 0.230755 16.505014 8.705516 -1.540043 3.690183 6.142356 3.939056 7.948697 0.746811 0.000000 -0.000000 0.000000 0.000000 -0.000001 0.000011 0.000000 0.000006 -0.000019 0.000000 -0.000002 -0.000002 0.000004 -0.001927 0.015997 -0.000004 0.001931 -0.016002 -0.000001 0.000000 -0.000003 0.000003 -0.000000 0.000012 -0.000001 0.000001 -0.000015 0.000000 0.000000 -0.000002 -0.018087 4.054254 0.511078 -0.018090 -4.054252 -0.511087 0.000001 0.000000 0.000001 0.000000 0.000000 0.000000 5.188627 10.588835 -17.043093 -39.537810 45.274189 97.619796 -0.000019 102.793835 0.000024 6.308717 -5.800629 39.941300 -1.849253 -3.581797 -6.586135 4.637196 -8.634118 -0.225402 -0.000000 0.000002 0.000001 -0.000001 0.000001 -0.000007 -0.000001 -0.000000 0.000014 -0.000002 0.000000 0.000004 0.000002 0.000000 0.000004 0.000003 -0.000001 0.000023 -0.000001 0.000000 0.000003 0.000001 -0.000000 0.000003 0.000004 -0.000007 0.000020 -0.000002 0.000001 -0.000004 0.000003 -0.000000 0.000010 -0.000001 -0.000002 0.000011 -0.000000 0.000001 0.000002 0.000001 -0.000000 -0.000003 -0.000000 0.000002 -0.000000 0.000002 0.000001 0.000000 -0.000000 0.000002 -0.000001 -0.000000 0.000002 -0.000001 -0.000000 0.000002 -0.000000 0.000002 0.000001 -0.000000 -0.000000 0.000002 -0.000001 -0.000000 0.000002 -0.000001 -0.000000 0.000002 -0.000000 0.000002 0.000001 -0.000000 0.000000 0.000001 0.000001 0.000000 0.000001 0.000001 0.000000 0.000001 0.000001 
7.752389 9.740025 -12.256252 -115.454758 73.242475 33.675210 0.000000 0.000000 -0.000000 -86.879754 5.462111 -1.467911 90.116853 0.371169 -0.720362 -7.059651 0.354223 -0.914557 0.000000 -0.000001 0.000000 0.000000 0.000000 -0.000002 -35.294518 7.136850 5.410311 87.482668 -5.174568 -3.755694 33.139152 0.868556 15.123413 0.000002 -0.000000 0.000001 -0.000002 0.000001 -0.000000 15.199179 -10.695166 -6.853624 10.185752 -5.031187 -4.126518 9.990490 -5.493610 -4.003246 -3.062562 7.250394 -14.443441 -28.110472 11.751714 -14.847703 0.000000 0.000000 0.000003 0.000000 0.000000 0.000003 0.000000 0.000000 0.000004 0.000000 0.000000 0.000003 -0.000000 0.000000 0.000003 0.000000 0.000000 0.000003 -0.000000 0.000000 0.000003 0.000000 0.000000 0.000003 0.000000 0.000000 0.000003 4.107881 -4.790347 29.995063 -98.160234 29.449505 -48.783540 -0.000000 -28.882999 -0.000000 0.431174 16.400609 8.843813 -1.540040 3.690178 6.142349 3.939054 7.948706 0.746810 0.000000 0.000002 0.000001 -0.000000 0.000003 0.000011 0.000003 0.000001 -0.000021 0.000001 0.000002 0.000002 -0.000000 -0.001931 0.015990 -0.000001 0.001928 -0.016002 0.000000 0.000001 -0.000001 0.000002 0.000004 0.000010 0.000001 -0.000001 -0.000022 -0.000001 -0.000001 -0.000002 -0.018090 4.054250 0.511074 -0.018090 -4.054257 -0.511082 -0.000001 -0.000002 0.000003 -0.000000 0.000000 0.000000 5.169987 10.526239 -17.181290 -39.744693 45.429999 97.916615 -0.000089 102.663549 0.000090 6.837464 -6.419677 39.016090 -1.849257 -3.581793 -6.586143 4.637202 -8.634126 -0.225394 0.000000 -0.000002 0.000000 -0.000002 0.000001 -0.000008 0.000003 -0.000007 0.000029 -0.000004 0.000001 0.000002 -0.000001 -0.000000 -0.000000 0.000002 -0.000002 0.000057 -0.000000 0.000000 0.000001 0.000001 0.000001 -0.000015 -0.000001 -0.000004 0.000038 -0.000000 0.000001 -0.000000 -0.000003 0.000004 -0.000002 0.000001 -0.000006 0.000024 0.000001 0.000000 0.000001 0.000001 -0.000000 -0.000002 -0.000000 0.000000 -0.000000 -0.000000 -0.000000 -0.000001 -0.000000 0.000000 -0.000000 -0.000000 0.000000 -0.000000 -0.000000 0.000000 -0.000000 -0.000000 -0.000000 -0.000001 -0.000000 0.000000 -0.000000 -0.000000 0.000000 -0.000000 -0.000000 0.000000 -0.000000 -0.000000 -0.000000 -0.000001 0.000000 0.000000 -0.000000 0.000000 0.000000 -0.000000 0.000000 0.000000 -0.000000 
7.773548 9.747845 -12.249466 -115.440524 73.166680 33.636038 -0.000001 0.000000 -0.000000 -86.699894 5.413621 -1.356975 90.221068 -0.119177 -0.789864 -8.028998 0.370721 -1.047244 -0.000001 -0.000001 0.000000 0.000001 0.000000 -0.000000 -35.246167 7.109331 5.422142 87.494375 -5.177262 -3.764836 33.108755 0.879622 15.051816 -0.000000 0.000000 -0.000000 0.000002 0.000000 -0.000000 15.149162 -10.675205 -6.797577 10.146127 -5.051347 -4.102141 9.950375 -5.513614 -3.977272 -2.944874 7.257577 -14.552603 -28.093678 11.789450 -14.848543 0.000000 0.000000 0.000001 0.000000 0.000000 0.000001 0.000000 0.000000 0.000002 0.000000 0.000000 0.000002 -0.000000 0.000000 0.000000 0.000000 0.000000 0.000002 -0.000000 0.000000 0.000000 0.000000 0.000000 0.000001 0.000000 0.000000 0.000001 4.142332 -4.736913 29.766651 -98.061067 29.336216 -48.805499 0.000002 -28.810161 0.000000 0.727782 16.318189 8.949747 -1.540046 3.690182 6.142356 3.939057 7.948697 0.746800 0.000001 0.000001 0.000000 0.000000 -0.000003 0.000013 -0.000003 0.000005 -0.000017 0.000003 -0.000001 -0.000002 0.000001 -0.001936 0.015992 0.000003 0.001929 -0.016008 -0.000001 0.000000 -0.000001 0.000006 -0.000004 0.000013 -0.000002 0.000003 -0.000014 0.000001 0.000000 0.000000 -0.018088 4.054248 0.511081 -0.018089 -4.054244 -0.511082 -0.000001 -0.000003 0.000002 0.000000 0.000000 0.000000 5.149339 10.461785 -17.293233 -39.931567 45.580492 98.183737 -0.000157 102.561690 0.000164 7.264733 -6.997014 38.122779 -1.849258 -3.581798 -6.586139 4.637196 -8.634125 -0.225401 0.000002 0.000001 -0.000001 -0.000001 -0.000000 0.000001 -0.000001 -0.000009 -0.000003 -0.000001 -0.000002 0.000000 -0.000001 -0.000002 0.000000 0.000002 -0.000003 0.000027 0.000001 0.000000 0.000003 -0.000001 0.000002 0.000004 -0.000000 -0.000006 -0.000010 -0.000000 -0.000001 0.000001 0.000001 0.000000 -0.000002 0.000002 -0.000005 0.000002 0.000002 0.000000 0.000006 -0.000000 -0.000000 -0.000000 -0.000003 -0.000001 0.000001 -0.000001 0.000001 0.000000 -0.000003 -0.000001 0.000000 -0.000003 -0.000001 0.000000 -0.000003 -0.000001 0.000001 -0.000001 0.000001 -0.000000 -0.000003 -0.000001 0.000000 -0.000003 -0.000001 0.000000 -0.000003 -0.000001 0.000001 -0.000001 0.000001 -0.000000 -0.000001 0.000000 -0.000000 -0.000001 0.000000 -0.000000 -0.000001 0.000000 -0.000000 
